<svg width="18" height="26" viewBox="0 0 18 26" fill="none" xmlns="http://www.w3.org/2000/svg">
<path d="M0.416234 20.6451C2.62185 18.917 4.42955 17.4276 5.83933 16.177C7.2491 14.9264 8.4315 13.6417 9.38651 12.3229C10.3415 10.9813 10.819 9.70798 10.819 8.50285C10.819 7.77522 10.6485 7.20677 10.3074 6.79748C9.98907 6.38819 9.51157 6.18354 8.8749 6.18354C8.21548 6.18354 7.70387 6.46777 7.34006 7.03623C6.97624 7.58195 6.80571 8.38916 6.82845 9.45786H0.348019C0.416234 7.43415 0.859632 5.76288 1.67821 4.44406C2.49679 3.1025 3.56549 2.12475 4.88432 1.51081C6.20314 0.874138 7.66976 0.555802 9.28419 0.555802C12.081 0.555802 14.1616 1.24932 15.5259 2.63636C16.8902 4.0234 17.5723 5.81973 17.5723 8.02535C17.5723 10.3901 16.7765 12.6071 15.1848 14.6763C13.6158 16.7455 11.649 18.5987 9.28419 20.2358H17.8111V25.6589H0.416234V20.6451Z" fill="#75BF7A"/>
</svg>
