<svg width="260" height="67" viewBox="0 0 260 67" fill="none" xmlns="http://www.w3.org/2000/svg">
<rect width="260" height="67" rx="5" fill="black"/>
<path d="M94.2412 24.6565C96.0617 24.6565 97.6525 25.0256 99.0137 25.7636C100.391 26.4852 101.449 27.502 102.187 28.8141C102.925 30.1261 103.294 31.6267 103.294 33.316C103.294 34.9888 102.917 36.4813 102.163 37.7933C101.425 39.1053 100.367 40.1386 98.9891 40.893C97.6279 41.631 96.0453 42 94.2412 42H87.3776V24.6565H94.2412ZM93.8722 37.7441C95.2826 37.7441 96.3897 37.3587 97.1933 36.5879C97.9969 35.817 98.3987 34.7264 98.3987 33.316C98.3987 31.8891 97.9969 30.7903 97.1933 30.0195C96.3897 29.2323 95.2826 28.8387 93.8722 28.8387H92.1994V37.7441H93.8722ZM113.783 42.1722C112.159 42.1722 110.667 41.795 109.305 41.0406C107.944 40.2698 106.862 39.2119 106.058 37.8671C105.271 36.5059 104.877 34.9724 104.877 33.2668C104.877 31.5611 105.271 30.0359 106.058 28.6911C106.862 27.3298 107.944 26.272 109.305 25.5176C110.667 24.7632 112.159 24.3859 113.783 24.3859C115.423 24.3859 116.915 24.7632 118.26 25.5176C119.621 26.272 120.696 27.3298 121.483 28.6911C122.27 30.0359 122.664 31.5611 122.664 33.2668C122.664 34.9724 122.27 36.5059 121.483 37.8671C120.696 39.2119 119.621 40.2698 118.26 41.0406C116.899 41.795 115.406 42.1722 113.783 42.1722ZM113.783 37.6949C115.013 37.6949 115.98 37.2931 116.686 36.4895C117.407 35.6858 117.768 34.6116 117.768 33.2668C117.768 31.8891 117.407 30.8067 116.686 30.0195C115.98 29.2159 115.013 28.8141 113.783 28.8141C112.536 28.8141 111.561 29.2159 110.855 30.0195C110.15 30.8067 109.797 31.8891 109.797 33.2668C109.797 34.628 110.15 35.7104 110.855 36.5141C111.561 37.3013 112.536 37.6949 113.783 37.6949ZM149.26 24.6565L145.004 42H139.075L136.689 31.3725L134.253 42H128.324L124.118 24.6565H129.333L131.35 36.5141L134.081 24.6565H139.37L142.027 36.4157L144.044 24.6565H149.26ZM167.37 42H162.548L156.127 32.3073V42H151.306V24.6565H156.127L162.548 34.4722V24.6565H167.37V42ZM174.938 38.3099H180.326V42H170.116V24.6565H174.938V38.3099ZM190.516 42.1722C188.892 42.1722 187.4 41.795 186.038 41.0406C184.677 40.2698 183.595 39.2119 182.791 37.8671C182.004 36.5059 181.61 34.9724 181.61 33.2668C181.61 31.5611 182.004 30.0359 182.791 28.6911C183.595 27.3298 184.677 26.272 186.038 25.5176C187.4 24.7632 188.892 24.3859 190.516 24.3859C192.156 24.3859 193.648 24.7632 194.993 25.5176C196.354 26.272 197.428 27.3298 198.216 28.6911C199.003 30.0359 199.396 31.5611 199.396 33.2668C199.396 34.9724 199.003 36.5059 198.216 37.8671C197.428 39.2119 196.354 40.2698 194.993 41.0406C193.632 41.795 192.139 42.1722 190.516 42.1722ZM190.516 37.6949C191.746 37.6949 192.713 37.2931 193.418 36.4895C194.14 35.6858 194.501 34.6116 194.501 33.2668C194.501 31.8891 194.14 30.8067 193.418 30.0195C192.713 29.2159 191.746 28.8141 190.516 28.8141C189.269 28.8141 188.293 29.2159 187.588 30.0195C186.883 30.8067 186.53 31.8891 186.53 33.2668C186.53 34.628 186.883 35.7104 187.588 36.5141C188.293 37.3013 189.269 37.6949 190.516 37.6949ZM212.536 39.1709H206.386L205.451 42H200.383L206.706 24.6565H212.265L218.563 42H213.471L212.536 39.1709ZM211.33 35.4808L209.461 29.8719L207.616 35.4808H211.33ZM226.998 24.6565C228.819 24.6565 230.409 25.0256 231.771 25.7636C233.148 26.4852 234.206 27.502 234.944 28.8141C235.682 30.1261 236.051 31.6267 236.051 33.316C236.051 34.9888 235.674 36.4813 234.92 37.7933C234.182 39.1053 233.124 40.1386 231.746 40.893C230.385 41.631 228.802 42 226.998 42H220.135V24.6565H226.998ZM226.629 37.7441C228.04 37.7441 229.147 37.3587 229.95 36.5879C230.754 35.817 231.156 34.7264 231.156 33.316C231.156 31.8891 230.754 30.7903 229.95 30.0195C229.147 29.2323 228.04 28.8387 226.629 28.8387H224.956V37.7441H226.629Z" fill="white"/>
<path d="M52.5003 49.5832C43.0652 49.5832 35.417 41.935 35.417 32.4998C35.417 23.0647 43.0652 15.4165 52.5003 15.4165C61.9355 15.4165 69.5837 23.0647 69.5837 32.4998C69.5734 41.9298 61.9303 49.5729 52.5003 49.5832ZM45.2006 37.261C44.9802 37.261 44.7616 37.2883 44.5463 37.3395L44.2901 37.4096L43.2753 39.147C43.09 39.4561 43.0305 39.8247 43.1091 40.1765C43.1877 40.5283 43.3984 40.8365 43.6978 41.0373C43.9971 41.2382 44.3621 41.3164 44.7175 41.2558C45.0728 41.1953 45.3913 41.0005 45.6072 40.7118L45.7131 40.5529L47.0627 38.2108C46.844 37.9183 46.5605 37.6803 46.2345 37.5155C45.9085 37.3507 45.5488 37.2636 45.1835 37.261H45.2006ZM54.5691 26.794C54.0376 27.2933 53.6852 27.9537 53.5663 28.6732C53.3759 29.6653 53.5584 30.6927 54.0788 31.5585L59.2722 40.5546C59.4529 40.8587 59.7411 41.084 60.0799 41.1858C60.4187 41.2877 60.7833 41.2587 61.1018 41.1047C61.4193 40.9481 61.6661 40.6774 61.7928 40.3468C61.9195 40.0162 61.9167 39.6499 61.7851 39.3212L61.7014 39.1504L60.3347 36.7741H62.3677C62.7237 36.7711 63.0653 36.6332 63.3236 36.3881C63.5819 36.1431 63.7376 35.8092 63.7592 35.4538C63.7809 35.0984 63.667 34.7481 63.4404 34.4734C63.2138 34.1988 62.8915 34.0204 62.5385 33.9741L62.3677 33.9639H58.7118L54.9637 27.4722L54.5725 26.7889L54.5691 26.794ZM42.6945 33.9519C42.5109 33.9524 42.3292 33.989 42.1598 34.0598C41.9905 34.1306 41.8367 34.2341 41.7074 34.3643C41.578 34.4946 41.4757 34.6491 41.4061 34.819C41.3366 34.9889 41.3013 35.1709 41.3022 35.3545C41.3022 36.0617 41.8284 36.6596 42.5305 36.7502L42.7013 36.7587H55.4797C55.6211 36.4747 55.6922 36.161 55.6872 35.8438C55.6821 35.5266 55.601 35.2152 55.4506 34.9359C55.3227 34.6742 55.1321 34.4483 54.8958 34.2781C54.6594 34.1079 54.3846 33.9988 54.0959 33.9605L53.8892 33.9502H49.5312L55.5582 23.514C55.7439 23.1905 55.7942 22.8067 55.6983 22.4463C55.6301 22.1933 55.4926 21.9645 55.3014 21.7854C55.1102 21.6063 54.8727 21.4841 54.6158 21.4327C54.359 21.3812 54.0928 21.4024 53.8473 21.494C53.6019 21.5855 53.3868 21.7438 53.2264 21.9509L53.1205 22.108L52.5003 23.1911L51.887 22.108C51.7063 21.8035 51.4177 21.578 51.0786 21.4761C50.7394 21.3742 50.3743 21.4034 50.0557 21.558C49.7383 21.7152 49.4918 21.9862 49.3651 22.317C49.2385 22.6478 49.2411 23.0142 49.3724 23.3432L49.4561 23.514L50.874 26.0082L46.2871 33.9519H42.6945Z" fill="white"/>
</svg>
