<svg width="19" height="27" viewBox="0 0 19 27" fill="none" xmlns="http://www.w3.org/2000/svg">
<path d="M0.728376 8.50261C0.81933 5.93317 1.61517 3.96631 3.1159 2.60201C4.61663 1.21497 6.70856 0.521451 9.39168 0.521451C11.1425 0.521451 12.6319 0.828418 13.8598 1.44235C15.1104 2.03355 16.054 2.85213 16.6907 3.89809C17.3274 4.92132 17.6457 6.08097 17.6457 7.37706C17.6457 8.92327 17.2705 10.1625 16.5202 11.0948C15.7698 12.0043 14.9171 12.6182 13.9621 12.9366V13.073C16.7134 14.0962 18.0891 16.0517 18.0891 18.9395C18.0891 20.372 17.7594 21.634 17.1 22.7254C16.4406 23.8169 15.4856 24.6696 14.2349 25.2835C12.9843 25.8974 11.495 26.2044 9.76687 26.2044C6.92457 26.2044 4.67348 25.5223 3.01358 24.158C1.37642 22.7709 0.523731 20.6562 0.455516 17.814H6.97005C6.92457 18.7235 7.11785 19.4284 7.54988 19.9286C7.98191 20.4289 8.62995 20.679 9.494 20.679C10.1534 20.679 10.665 20.4743 11.0288 20.0651C11.4154 19.6558 11.6087 19.11 11.6087 18.4279C11.6087 17.5638 11.3244 16.9272 10.756 16.5179C10.2103 16.1086 9.3121 15.9039 8.06149 15.9039H6.86773V10.4808H8.02738C8.89144 10.5036 9.61907 10.3672 10.2103 10.0716C10.8242 9.75321 11.1312 9.12791 11.1312 8.19564C11.1312 7.49075 10.9606 6.96777 10.6196 6.62669C10.2785 6.26288 9.81234 6.08097 9.22114 6.08097C8.56173 6.08097 8.07286 6.31973 7.75452 6.79723C7.45892 7.252 7.28839 7.82046 7.24291 8.50261H0.728376Z" fill="#75BF7A"/>
</svg>
