<svg width="260" height="67" viewBox="0 0 260 67" fill="none" xmlns="http://www.w3.org/2000/svg">
<rect width="260" height="66.7732" rx="5" fill="black"/>
<path d="M95.2412 23.6565C97.0617 23.6565 98.6525 24.0256 100.014 24.7636C101.391 25.4852 102.449 26.502 103.187 27.8141C103.925 29.1261 104.294 30.6267 104.294 32.316C104.294 33.9888 103.917 35.4813 103.163 36.7933C102.425 38.1053 101.367 39.1386 99.9891 39.893C98.6279 40.631 97.0453 41 95.2412 41H88.3776V23.6565H95.2412ZM94.8722 36.7441C96.2826 36.7441 97.3897 36.3587 98.1933 35.5879C98.9969 34.817 99.3987 33.7264 99.3987 32.316C99.3987 30.8891 98.9969 29.7903 98.1933 29.0195C97.3897 28.2323 96.2826 27.8387 94.8722 27.8387H93.1994V36.7441H94.8722ZM114.783 41.1722C113.159 41.1722 111.667 40.795 110.305 40.0406C108.944 39.2698 107.862 38.2119 107.058 36.8671C106.271 35.5059 105.877 33.9724 105.877 32.2668C105.877 30.5611 106.271 29.0359 107.058 27.6911C107.862 26.3298 108.944 25.272 110.305 24.5176C111.667 23.7632 113.159 23.3859 114.783 23.3859C116.423 23.3859 117.915 23.7632 119.26 24.5176C120.621 25.272 121.696 26.3298 122.483 27.6911C123.27 29.0359 123.664 30.5611 123.664 32.2668C123.664 33.9724 123.27 35.5059 122.483 36.8671C121.696 38.2119 120.621 39.2698 119.26 40.0406C117.899 40.795 116.406 41.1722 114.783 41.1722ZM114.783 36.6949C116.013 36.6949 116.98 36.2931 117.686 35.4895C118.407 34.6858 118.768 33.6116 118.768 32.2668C118.768 30.8891 118.407 29.8067 117.686 29.0195C116.98 28.2159 116.013 27.8141 114.783 27.8141C113.536 27.8141 112.561 28.2159 111.855 29.0195C111.15 29.8067 110.797 30.8891 110.797 32.2668C110.797 33.628 111.15 34.7104 111.855 35.5141C112.561 36.3013 113.536 36.6949 114.783 36.6949ZM150.26 23.6565L146.004 41H140.075L137.689 30.3725L135.253 41H129.324L125.118 23.6565H130.333L132.35 35.5141L135.081 23.6565H140.37L143.027 35.4157L145.044 23.6565H150.26ZM168.37 41H163.548L157.127 31.3073V41H152.306V23.6565H157.127L163.548 33.4722V23.6565H168.37V41ZM175.938 37.3099H181.326V41H171.116V23.6565H175.938V37.3099ZM191.516 41.1722C189.892 41.1722 188.4 40.795 187.038 40.0406C185.677 39.2698 184.595 38.2119 183.791 36.8671C183.004 35.5059 182.61 33.9724 182.61 32.2668C182.61 30.5611 183.004 29.0359 183.791 27.6911C184.595 26.3298 185.677 25.272 187.038 24.5176C188.4 23.7632 189.892 23.3859 191.516 23.3859C193.156 23.3859 194.648 23.7632 195.993 24.5176C197.354 25.272 198.428 26.3298 199.216 27.6911C200.003 29.0359 200.396 30.5611 200.396 32.2668C200.396 33.9724 200.003 35.5059 199.216 36.8671C198.428 38.2119 197.354 39.2698 195.993 40.0406C194.632 40.795 193.139 41.1722 191.516 41.1722ZM191.516 36.6949C192.746 36.6949 193.713 36.2931 194.418 35.4895C195.14 34.6858 195.501 33.6116 195.501 32.2668C195.501 30.8891 195.14 29.8067 194.418 29.0195C193.713 28.2159 192.746 27.8141 191.516 27.8141C190.269 27.8141 189.293 28.2159 188.588 29.0195C187.883 29.8067 187.53 30.8891 187.53 32.2668C187.53 33.628 187.883 34.7104 188.588 35.5141C189.293 36.3013 190.269 36.6949 191.516 36.6949ZM213.536 38.1709H207.386L206.451 41H201.383L207.706 23.6565H213.265L219.563 41H214.471L213.536 38.1709ZM212.33 34.4808L210.461 28.8719L208.616 34.4808H212.33ZM227.998 23.6565C229.819 23.6565 231.409 24.0256 232.771 24.7636C234.148 25.4852 235.206 26.502 235.944 27.8141C236.682 29.1261 237.051 30.6267 237.051 32.316C237.051 33.9888 236.674 35.4813 235.92 36.7933C235.182 38.1053 234.124 39.1386 232.746 39.893C231.385 40.631 229.802 41 227.998 41H221.135V23.6565H227.998ZM227.629 36.7441C229.04 36.7441 230.147 36.3587 230.95 35.5879C231.754 34.817 232.156 33.7264 232.156 32.316C232.156 30.8891 231.754 29.7903 230.95 29.0195C230.147 28.2323 229.04 27.8387 227.629 27.8387H225.956V36.7441H227.629Z" fill="white"/>
<path d="M56.2886 32.0775L61.833 27.1632L43.9249 18.2419C42.738 17.6735 41.6261 17.5938 40.6511 18.2153L56.2886 32.0775ZM62.778 37.8311L68.5418 34.9576C69.6668 34.3992 70.2836 33.6081 70.2836 32.7306C70.2836 31.8548 69.6667 31.062 68.5436 30.5036L63.3255 27.906L57.4511 33.1112L62.778 37.8311ZM39.6874 19.4235C39.5674 19.7509 39.4999 20.1166 39.4999 20.5171V44.9558C39.4999 45.589 39.6574 46.1341 39.9424 46.5679L55.1243 33.1096L39.6874 19.4235ZM56.2886 34.1399L41.1911 47.5235C41.4799 47.6215 41.7911 47.6731 42.1193 47.6731C42.7043 47.6731 43.3136 47.5202 43.9343 47.2144L61.2874 38.5773L56.2886 34.1399Z" fill="white"/>
</svg>
