<svg width="311" height="234" viewBox="0 0 311 234" fill="none" xmlns="http://www.w3.org/2000/svg">
<path d="M82.5 209C76.5806 197.337 65.6465 169.676 93.0524 124.566C120.458 79.4557 189.221 84.6961 216.627 102.329C244.033 119.963 257.417 142.765 260.249 166.772C263.011 190.779 251 209 251 209H82.5Z" fill="#75BF7A"/>
<path d="M284.823 137.738H253.239C251.256 137.738 249.698 136.18 249.698 134.197V118.405C249.698 116.422 251.256 114.864 253.239 114.864H284.823C286.806 114.864 288.364 116.422 288.364 118.405V134.197C288.364 136.18 286.735 137.738 284.823 137.738Z" fill="#75BF7A"/>
<path d="M269.031 146.731L273.988 134.834H264.003L269.031 146.731Z" fill="#75BF7A"/>
<path d="M268.889 122.441H277.954V123.716L282.344 121.167L277.954 118.617V119.963H268.889V122.441Z" fill="#263238"/>
<path d="M282.344 127.611H273.28V126.265L268.889 128.885L273.28 131.435V130.089H282.344V127.611Z" fill="white"/>
<path d="M263.295 129.948L262.87 130.09C262.87 130.09 261.524 128.532 260.816 126.903C260.108 125.203 260.108 123.22 260.108 123.22L260.391 123.079L258.479 118.476C258.125 118.759 257.842 119.113 257.559 119.538C256.496 121.379 256.567 124.141 257.7 126.903C258.763 129.665 259.966 132.072 262.091 133.63C263.366 134.551 264.428 134.693 265.278 134.551L263.295 129.948Z" fill="#263238"/>
<path d="M264.711 129.381L264.145 129.594L266.127 134.268C266.34 134.197 266.552 134.126 266.694 133.984C267.19 133.701 267.402 133.135 267.19 132.568L266.198 130.019C265.915 129.452 265.278 129.169 264.711 129.381Z" fill="#263238"/>
<path d="M260.037 117.697C259.825 117.767 259.542 117.909 259.258 118.051L261.241 122.725L261.879 122.441C262.445 122.229 262.728 121.521 262.516 120.954L261.454 118.334C261.241 117.767 260.604 117.484 260.037 117.697Z" fill="#263238"/>
<path d="M82.784 212.732V159.974C82.784 159.974 82.2175 145.74 89.6532 141.633C97.1597 137.525 128.602 139.721 128.602 139.721V212.661H82.784V212.732Z" fill="#75BF7A"/>
<path d="M138.516 90.3618C138.516 90.3618 136.604 106.366 135.896 107.641C135.188 108.986 135.188 108.986 135.188 108.986L131.506 111.465C131.506 111.465 138.516 121.45 147.156 123.008C155.796 124.637 155.087 119.467 155.087 119.467L153.742 116.705L155.512 101.48C155.512 101.551 139.791 94.3275 138.516 90.3618Z" fill="#FF9D8C"/>
<path d="M126.902 112.811L132.639 110.332C132.639 110.332 136.321 116.351 144.819 119.821C153.317 123.291 153.459 121.309 153.883 119.821C154.308 118.334 153.742 116.776 153.742 116.776L154.379 111.678L157.778 112.811L169.534 208.2L139.225 209.687L126.902 112.811Z" fill="white"/>
<path d="M154.946 111.748C154.946 111.748 156.999 116.493 158.911 127.611C160.824 138.729 162.594 157.496 163.019 170.384C163.444 183.273 163.727 212.732 163.727 212.732C163.727 212.732 201.543 212.732 201.968 212.732C202.393 212.732 205.013 198.215 205.013 198.215C205.013 198.215 188.3 183.91 187.45 181.573C186.884 180.015 187.167 151.051 184.689 137.738C182.21 124.425 178.952 121.733 172.225 118.405C165.214 114.935 154.946 111.748 154.946 111.748Z" fill="#263238"/>
<path d="M174.845 195.949C174.633 195.949 174.491 195.807 174.491 195.595C174.491 194.532 174.279 179.661 174.137 165.285C173.925 150.91 173.783 136.038 173.783 134.976C173.783 134.764 173.925 134.622 174.137 134.622C174.35 134.622 174.491 134.764 174.491 134.976C174.491 136.038 174.704 150.91 174.845 165.285C175.058 179.661 175.199 194.532 175.199 195.595C175.199 195.807 175.058 195.949 174.845 195.949Z" fill="#263238"/>
<path d="M98.647 192.337L98.3637 212.732H142.907C142.907 212.732 144.819 195.453 144.111 193.824C143.332 192.196 98.647 192.337 98.647 192.337Z" fill="#263238"/>
<path d="M148.218 107.216C150.059 108.703 152.538 109.836 154.45 110.544L155.512 101.48C155.512 101.48 143.757 96.0978 139.72 92.0613C140.57 96.6643 142.624 102.755 148.218 107.216Z" fill="#263238"/>
<path d="M169.251 60.6188C169.251 60.6188 172.296 65.8592 172.933 72.3743C173.5 78.8186 172.933 95.3896 167.693 102.4C162.452 109.411 151.405 107.358 146.448 103.109C141.845 99.2137 137.383 94.8939 136.18 86.3959C134.976 77.898 138.658 61.7519 149.068 58.4235C159.478 55.0951 169.251 60.6188 169.251 60.6188Z" fill="#FF9D8C"/>
<path d="M182.493 203.526C182.493 203.526 181.998 203.526 181.219 203.526C181.006 203.526 180.794 203.526 180.652 203.526C179.873 203.526 178.952 203.455 178.032 203.455C177.819 203.455 177.607 203.455 177.394 203.455C176.474 203.455 175.695 203.526 174.916 203.526C174.774 203.526 174.562 203.526 174.349 203.526C174.279 203.526 174.208 203.526 174.137 203.526C173.712 203.455 173.641 203.384 173.146 203.172C172.579 202.889 164.506 201.118 157.92 201.118C151.405 201.118 145.527 201.614 144.536 200.764C143.544 199.985 142.978 191.7 148.572 191.204L155.441 193.824C155.441 193.824 171.092 191.983 176.899 196.232C182.635 200.41 182.493 203.526 182.493 203.526Z" fill="#FF9D8C"/>
<path d="M174.916 203.456C174.774 203.456 174.562 203.456 174.349 203.456C174.208 203.243 173.924 202.818 173.783 202.677C172.012 200.835 167.763 199.702 166.205 199.348C166.064 199.277 165.993 199.207 165.993 198.994C165.993 198.852 166.135 198.782 166.347 198.782C168.613 199.348 173.429 200.694 174.774 203.031C174.703 203.101 174.845 203.314 174.916 203.456Z" fill="#263238"/>
<path d="M177.961 203.455C177.749 203.455 177.536 203.455 177.324 203.455C175.412 199.915 172.225 198.923 168.33 197.648L168.118 197.578C167.976 197.507 167.905 197.365 167.976 197.224C168.047 197.082 168.188 197.011 168.33 197.082L168.542 197.153C172.65 198.427 175.978 199.49 177.961 203.455Z" fill="#263238"/>
<path d="M181.219 203.526C181.006 203.526 180.794 203.526 180.581 203.526C179.377 201.048 175.553 196.94 170.384 195.949C170.242 195.949 170.171 195.807 170.171 195.666C170.171 195.524 170.313 195.453 170.455 195.453C175.766 196.445 180.015 200.764 181.219 203.526Z" fill="#263238"/>
<path d="M139.649 79.1728C139.649 79.1728 142.907 77.6148 145.173 73.295C147.439 68.9752 147.156 65.0804 147.156 65.0804C147.156 65.0804 151.263 64.443 157.424 66.2842C163.585 68.1255 170.879 70.604 177.04 67.0632C183.201 63.5224 183.201 57.9279 180.156 55.591C176.757 52.9708 170.1 54.5996 170.1 54.5996C170.1 54.5996 172.65 52.121 171.304 50.6338C169.888 49.1467 164.86 51.0587 164.86 51.0587C164.86 51.0587 158.699 46.1724 147.085 46.739C135.471 47.3055 129.877 55.4493 129.239 64.5138C128.602 73.5783 131.86 82.7136 131.86 82.7136L139.649 79.1728Z" fill="#263238"/>
<path d="M163.302 81.3679C162.665 82.9967 162.665 84.9087 162.523 86.6083C162.381 87.9538 162.169 89.5118 163.373 90.4324C163.939 90.8573 166.772 92.0612 165.285 92.9818C164.718 93.3359 163.798 93.2651 163.231 93.1942C162.806 93.1942 162.381 93.1234 161.957 93.1234C161.532 93.1234 161.036 92.9818 160.611 92.9818C160.328 92.9818 160.257 93.3359 160.469 93.4775C161.178 93.9732 162.311 94.1148 163.16 94.1148C164.01 94.1148 164.577 94.1149 165.356 93.69C165.851 93.4775 166.276 93.1234 166.347 92.5569C166.418 91.9195 165.922 91.353 165.497 90.9989C164.931 90.574 164.293 90.3616 163.727 90.0075C162.948 89.441 163.019 88.5204 163.09 87.6706C163.231 85.6169 163.727 83.5632 163.869 81.4387C163.869 81.1555 163.373 81.1555 163.302 81.3679Z" fill="#263238"/>
<path d="M169.322 86.2544C169.109 87.4583 168.189 88.3789 167.339 88.2373C166.418 88.0956 165.922 86.9626 166.135 85.6879C166.347 84.484 167.268 83.5634 168.118 83.705C168.967 83.9175 169.534 85.0505 169.322 86.2544Z" fill="#263238"/>
<path d="M158.062 85.2628C157.849 86.6083 156.929 87.5289 155.937 87.3873C154.946 87.2457 154.379 86.0418 154.592 84.6963C154.804 83.3508 155.725 82.4302 156.716 82.5718C157.708 82.7134 158.274 83.9173 158.062 85.2628Z" fill="#263238"/>
<path d="M166.701 81.1557C167.409 81.2973 168.047 81.1557 168.755 81.2265C168.897 81.2265 169.109 81.2973 169.251 81.2973C169.392 81.2973 169.038 81.2973 169.18 81.2973H169.251C169.322 81.2973 169.392 81.2973 169.534 81.3682C169.676 81.439 169.817 81.439 169.959 81.5098C170.101 81.5098 170.242 81.5806 170.384 81.5806C170.455 81.5806 170.525 81.5806 170.596 81.5806C170.525 81.5806 170.525 81.5806 170.455 81.5806H170.738C171.163 81.5098 171.375 81.0141 171.234 80.66C171.234 80.5184 171.163 80.4475 171.092 80.3767C171.092 80.3059 171.021 80.3059 171.021 80.2351L171.092 80.3059C171.092 80.2351 171.021 80.2351 171.021 80.1643C170.95 80.0935 170.95 80.0226 170.879 80.0226C170.809 79.9518 170.738 79.9518 170.738 79.881C170.525 79.7394 170.313 79.6686 170.1 79.5978C169.676 79.5269 169.251 79.4561 168.826 79.4561C168.401 79.4561 167.976 79.5269 167.551 79.5269C167.197 79.5978 166.772 79.6686 166.489 79.9518C166.276 80.0935 166.135 80.3767 166.135 80.66C166.206 80.8724 166.418 81.1557 166.701 81.1557Z" fill="#263238"/>
<path d="M158.841 79.2436C158.77 79.1728 158.628 79.1728 158.557 79.1019C158.487 79.0311 158.274 78.9603 158.416 79.0311C158.345 79.0311 158.274 78.9603 158.203 78.9603C157.92 78.8187 157.637 78.7479 157.354 78.677C156.716 78.5354 156.008 78.4646 155.3 78.5354C154.592 78.6062 153.884 78.8187 153.246 79.1728C153.175 79.2436 153.034 79.3144 152.963 79.3852C152.892 79.456 152.892 79.5268 152.821 79.5977C152.821 79.5977 152.821 79.5268 152.892 79.5268C152.68 79.6685 152.609 79.8809 152.609 80.0934C152.609 80.3058 152.75 80.5183 152.892 80.5891C153.105 80.7307 153.388 80.6599 153.6 80.5891C153.459 80.5891 153.388 80.5891 153.246 80.5891C153.459 80.5891 153.6 80.6599 153.813 80.5891C153.813 80.5891 154.025 80.5183 153.884 80.5891C153.742 80.5891 154.096 80.5891 154.096 80.5891C154.167 80.5891 154.379 80.5891 154.096 80.5891C154.167 80.5891 154.167 80.5891 154.238 80.5891C154.379 80.5891 154.45 80.5891 154.592 80.5183C155.087 80.4474 155.583 80.4474 156.008 80.4474C156.433 80.4474 156.929 80.4474 157.354 80.4474C157.566 80.4474 157.708 80.4474 157.92 80.4474C157.991 80.4474 158.062 80.4474 157.92 80.4474C157.991 80.4474 157.991 80.4474 158.062 80.4474C158.132 80.4474 158.203 80.5183 158.274 80.5183C158.557 80.6599 158.982 80.3766 159.053 80.0934C159.266 79.7393 159.195 79.3852 158.841 79.2436Z" fill="#263238"/>
<path d="M162.382 99.5678C163.019 98.2223 164.294 97.2308 165.71 96.5935C164.506 96.4519 158.699 95.9562 157.212 96.7351C155.583 97.6558 157.495 101.409 160.894 101.621C161.248 101.621 161.603 101.621 161.886 101.551C161.886 100.913 162.027 100.205 162.382 99.5678Z" fill="#263238"/>
<path d="M135.542 91.7073C135.542 91.7073 136.109 93.9734 139.508 96.5936C142.907 99.2138 147.793 101.126 147.793 101.126L148.218 99.4263C148.218 99.4263 143.19 97.231 140.853 94.8232C138.516 92.4154 138.233 91.0699 138.233 91.0699L135.542 91.7073Z" fill="#263238"/>
<path d="M148.785 98.2222C151.476 98.0806 153.034 100.205 153.175 101.621C153.388 103.038 152.042 104.596 148.997 103.179C145.244 101.48 146.023 98.3639 148.785 98.2222Z" fill="#263238"/>
<path d="M137.667 74.9239C137.667 74.9239 138.87 66.4967 144.465 60.7606C155.229 49.8549 164.364 50.4923 164.364 50.4923C164.364 50.4923 164.293 48.9343 160.823 47.8012C157.566 46.6682 156.15 47.3055 156.15 47.3055C156.15 47.3055 147.298 48.0137 139.791 56.2992C132.285 64.5847 131.506 75.1363 131.506 75.1363L137.667 74.9239Z" fill="#263238"/>
<path d="M136.888 73.9323C129.806 72.7284 125.911 78.2521 125.628 83.8466C125.345 89.4411 129.381 93.6192 134.763 93.1943C146.943 92.2029 145.527 75.3486 136.888 73.9323Z" fill="white"/>
<path d="M133.347 87.7414C131.505 87.7414 129.877 86.8208 129.027 85.192C128.035 83.4216 128.177 81.2263 129.239 79.6684C129.31 79.5267 129.452 79.5267 129.593 79.5976C129.735 79.6684 129.735 79.8808 129.664 79.9516C128.673 81.368 128.602 83.3508 129.452 84.9088C130.302 86.3959 131.718 87.2457 133.488 87.2457C135.117 87.1749 136.463 86.4667 137.312 85.192C138.304 83.7049 138.516 81.6512 137.879 80.0224C137.242 78.3229 135.542 77.1898 133.913 77.4022C133.772 77.4022 133.63 77.3314 133.63 77.1898C133.63 77.0482 133.701 76.9065 133.842 76.9065C135.684 76.6941 137.666 77.898 138.375 79.81C139.083 81.6512 138.8 83.8465 137.737 85.4753C136.746 86.8916 135.259 87.7414 133.488 87.8122C133.488 87.7414 133.418 87.7414 133.347 87.7414Z" fill="#263238"/>
<path d="M128.248 110.757C128.248 110.757 106.862 115.997 99.3551 124.495C91.8485 132.993 88.3785 174.916 88.2369 182.635C88.0953 190.425 93.4773 193.612 96.7349 195.807C99.9924 198.002 114.156 201.968 125.628 202.535C137.029 203.101 147.864 202.535 147.864 202.535C147.864 202.535 147.793 200.056 149.564 196.374C151.193 192.974 153.246 192.266 153.246 192.266L143.403 188.725C143.403 188.725 141.703 157.92 139.012 142.978C136.038 125.982 128.248 110.757 128.248 110.757Z" fill="#263238"/>
<path d="M163.727 183.91C163.656 183.91 163.656 183.91 163.585 183.91C163.373 183.839 163.302 183.627 163.373 183.414C165.356 178.882 167.48 170.03 168.613 163.798L168.684 163.303C169.038 161.461 169.463 159.195 168.613 157.637C168.188 156.858 167.126 155.088 166.206 153.388C165.214 151.618 164.223 149.989 164.01 149.493C163.514 148.502 165.143 145.953 167.48 142.483C168.118 141.562 168.684 140.712 168.967 140.146C169.817 138.729 169.251 137.384 168.613 135.826L168.401 135.33C167.834 133.914 167.126 132.427 166.489 131.081C166.206 130.515 165.993 129.948 165.71 129.382C165.356 128.603 165.002 127.824 164.648 127.045C162.594 122.442 160.469 117.626 157.708 113.023C157.637 112.881 157.637 112.669 157.849 112.527C157.991 112.456 158.203 112.456 158.345 112.669C161.107 117.343 163.231 122.087 165.356 126.761C165.71 127.54 166.064 128.319 166.418 129.098C166.701 129.665 166.914 130.231 167.197 130.798C167.834 132.214 168.542 133.631 169.109 135.118L169.321 135.613C169.959 137.171 170.667 138.8 169.676 140.571C169.321 141.137 168.755 141.987 168.118 142.907C166.914 144.749 164.364 148.573 164.718 149.21C165.002 149.706 165.922 151.335 166.914 153.034C167.905 154.734 168.897 156.433 169.321 157.283C170.313 159.054 169.888 161.532 169.463 163.444L169.392 163.94C168.967 166.206 166.701 177.82 164.081 183.698C163.939 183.839 163.869 183.91 163.727 183.91Z" fill="#263238"/>
<path d="M142.836 185.185C142.765 185.185 142.624 185.185 142.553 185.114C140.853 183.414 132.851 169.534 132.285 166.914C131.931 165.498 132.78 161.886 133.559 158.346C134.197 155.654 134.834 152.822 134.622 152.043C134.338 150.91 132.285 149.21 130.302 147.581C127.894 145.599 125.415 143.616 124.92 141.775C124.353 139.721 124.849 126.691 125.132 118.122C125.274 115.006 125.345 112.598 125.345 111.748C125.345 111.536 125.486 111.394 125.699 111.394C125.911 111.394 126.053 111.536 126.053 111.748C126.053 112.598 125.982 115.077 125.84 118.193C125.557 126.195 125.061 139.65 125.557 141.633C125.982 143.262 128.461 145.245 130.656 147.086C132.851 148.856 134.905 150.556 135.188 151.901C135.401 152.822 134.834 155.442 134.126 158.487C133.418 161.745 132.568 165.498 132.851 166.773C133.418 169.322 141.349 182.99 142.978 184.618C143.12 184.76 143.12 184.972 142.978 185.114C142.978 185.114 142.907 185.185 142.836 185.185Z" fill="#263238"/>
<path d="M114.014 179.094C113.802 179.094 113.66 178.882 113.66 178.67C113.943 176.828 117.98 140.145 118.192 137.313C118.192 137.1 118.405 136.959 118.546 136.959C118.759 136.959 118.9 137.171 118.9 137.313C118.688 140.145 114.651 176.828 114.368 178.67C114.368 178.953 114.226 179.094 114.014 179.094Z" fill="#263238"/>
<path d="M143.19 189.08C143.12 189.08 143.12 189.08 143.049 189.08C142.128 188.725 138.162 187.38 133.134 185.68C122.937 182.281 109.057 177.537 106.366 176.191C106.224 176.12 106.153 175.908 106.224 175.695C106.295 175.554 106.508 175.483 106.72 175.554C109.34 176.899 123.787 181.785 133.347 185.043C138.375 186.743 142.411 188.088 143.332 188.442C143.544 188.513 143.615 188.725 143.544 188.938C143.474 189.009 143.332 189.08 143.19 189.08Z" fill="#263238"/>
<path d="M138.304 203.668C129.381 203.668 112.031 202.039 98.8593 197.365C98.6468 197.294 98.576 197.082 98.6468 196.94C98.7176 196.728 98.9301 196.657 99.0717 196.728C115.714 202.606 139.012 203.597 143.332 202.676C143.544 202.606 143.686 202.747 143.757 202.96C143.828 203.172 143.686 203.314 143.473 203.385C142.553 203.526 140.712 203.668 138.304 203.668Z" fill="#263238"/>
<path d="M35.9038 115.713C38.6656 118.192 42.2064 119.75 44.6142 122.583C45.6056 123.716 46.4554 124.849 47.3052 126.053C47.9426 126.902 49.713 128.319 49.9962 129.381C50.1379 129.877 50.067 129.239 49.9962 128.744V128.673C49.7838 126.548 49.5713 124.353 49.5005 122.158C49.4297 119.962 49.5713 117.838 49.4297 115.643C49.2172 112.598 48.2966 109.623 45.8181 107.711C44.6142 106.791 43.0562 106.224 41.9232 105.162C40.8609 104.17 41.2858 103.037 41.9232 101.975C42.4897 100.913 43.1979 99.9214 43.4811 98.7884C43.7644 97.4429 43.2687 96.0265 42.5605 94.8935C41.1442 92.4857 37.8866 89.7239 34.8416 90.078C32.2922 90.3612 32.0089 93.3355 32.0797 95.3892C32.0797 97.372 32.2922 99.3549 32.363 101.338C32.363 103.391 32.0089 105.374 32.0089 107.428C31.7256 110.827 33.3544 113.447 35.9038 115.713Z" fill="#75BF7A"/>
<path d="M61.6809 147.439C62.4598 145.598 63.3096 143.898 64.4427 142.199C65.9298 139.862 67.6294 137.666 68.6208 135.046C69.6123 132.426 69.4706 129.593 69.6123 126.832C69.6831 124.778 70.3204 122.795 70.108 120.741C70.0372 119.75 69.4706 118.192 68.1959 118.334C67.2045 118.475 66.638 119.679 66.2131 120.458C65.5757 121.804 65.08 123.291 64.5843 124.707C64.3719 125.274 64.2302 125.84 63.947 126.407C63.8053 126.69 63.3804 127.469 62.9555 127.398C62.2474 127.186 62.8847 124.282 63.0264 123.786C63.5929 121.166 64.3719 118.758 64.5135 116.067C64.6551 112.173 64.3719 107.499 60.5478 105.374C59.5564 104.808 58.2817 104.454 57.3611 105.303C56.4404 106.153 56.1572 107.57 56.0156 108.703C55.5907 112.314 56.4405 115.713 57.5735 119.113C58.4941 121.945 59.6272 124.778 59.7688 127.823C59.8396 130.726 58.3525 133.276 57.6443 135.967C56.5113 140.287 56.7237 142.624 56.7237 144.04C56.7237 145.81 56.7945 147.51 56.9362 149.28C57.0778 150.909 57.2194 152.538 57.3611 154.096C57.4319 154.45 57.4319 154.733 57.5027 155.087C56.8653 153.6 56.6529 151.9 56.1572 150.413C55.2366 147.722 54.1743 145.173 53.3245 142.482C52.6164 140.287 51.9082 138.021 50.9876 135.896C50.067 133.913 49.0047 131.789 47.3052 130.302C46.3137 129.381 45.039 128.885 43.6935 128.885C42.8437 128.885 42.0648 129.168 41.215 129.381C40.2235 129.664 39.3737 129.523 38.5948 128.885C35.8329 126.761 35.0539 123.007 33.0003 120.387C31.5131 118.404 27.9015 115.005 25.2813 117.201C23.865 118.334 23.5109 120.6 23.5817 122.299C23.6525 124.424 24.5731 126.407 25.7062 128.177C26.9101 130.089 28.3972 131.789 29.5303 133.701C30.1676 134.834 30.2384 135.967 30.1676 137.242C30.0968 138.445 29.9552 139.649 30.3801 140.853C31.6548 144.394 35.5497 143.898 38.5948 143.969C40.7192 144.04 42.9854 144.323 45.039 145.031C47.376 145.81 48.8631 147.368 49.7129 149.634C50.3503 151.334 50.6335 153.175 51.7666 154.662C52.3331 155.3 53.0413 155.795 53.8202 156.149C55.0241 156.645 58.6358 156.928 58.6358 156.574C58.7066 155.441 59.2731 154.308 59.5564 153.246C60.1937 151.263 60.9019 149.351 61.6809 147.439Z" fill="#75BF7A"/>
<path d="M78.4643 146.731C78.181 144.677 78.181 142.482 77.2604 140.57C77.1896 140.428 76.9772 140.428 76.9063 140.499C76.1982 140.853 76.1982 141.986 76.1274 142.694C76.0566 143.827 76.1274 144.96 75.9857 146.094C75.7733 148.076 75.2776 150.13 74.5694 151.971C73.7904 154.096 72.3033 155.3 70.1788 155.937C68.8333 156.362 67.4878 156.716 66.3547 157.637C65.3633 158.416 64.6551 159.549 64.0886 160.752C62.6723 163.939 61.9641 167.48 61.3268 170.95C60.9019 173.216 60.5478 175.553 59.9813 177.819C59.4147 180.085 58.8482 182.351 58.4941 184.688C58.4233 184.83 58.3525 184.901 58.3525 185.042C58.2109 185.397 58.7774 185.609 58.919 185.255C61.1143 181.856 63.8053 178.811 67.4878 176.969C69.1166 176.12 71.3119 175.978 72.7282 174.632C73.7904 173.641 73.9321 172.083 73.7904 170.738C73.578 168.967 72.7282 167.48 71.8076 165.922C71.3119 165.072 70.7453 164.152 70.9578 163.16C71.1702 162.169 71.9492 161.461 72.7282 160.965C74.2153 160.044 76.0566 159.619 77.2604 158.203C78.3935 156.928 79.0308 155.37 79.1725 153.671C79.2433 151.405 78.8184 148.997 78.4643 146.731Z" fill="#75BF7A"/>
<path d="M48.509 158.416C46.597 155.937 44.1893 153.742 41.5691 151.971C40.1527 151.051 36.8244 149.21 36.187 151.971C35.7621 153.6 37.3909 155.158 38.3823 156.22C39.9403 157.708 41.7815 159.053 43.0562 160.823C41.4274 161.319 39.7278 161.461 38.3115 162.594C36.6119 163.939 35.9038 166.489 37.5325 168.118C38.3115 168.896 39.4446 169.392 40.436 169.888C41.7815 170.525 43.0562 171.092 44.4017 171.658C47.3052 172.862 50.2795 174.137 52.758 176.12C55.3074 178.173 57.6443 181.573 57.8568 184.901C57.8568 185.184 57.786 184.901 57.9276 184.759C57.9984 184.83 58.3525 184.689 58.3525 184.476C58.2817 179.59 57.4319 174.916 55.3782 170.384C53.6078 166.276 51.2709 162.027 48.509 158.416Z" fill="#75BF7A"/>
<path d="M41.7815 112.739C42.8437 114.935 43.9768 117.13 45.1806 119.325C46.3137 121.379 47.4468 123.503 48.2966 125.699C49.3588 128.46 50.421 131.151 51.5541 133.842C52.6872 136.675 53.7494 139.579 54.5992 142.482C56.228 148.218 57.4319 154.096 57.9984 160.044C58.2816 163.09 58.4233 166.064 58.3525 169.109C58.2816 171.446 57.9984 173.854 57.7859 176.191C57.5735 178.669 57.361 181.148 57.5735 183.555C57.7151 185.609 58.0692 188.088 59.698 189.504C59.9812 189.787 60.4769 189.433 60.2645 189.079C58.3525 185.184 58.4941 180.935 58.8482 176.757C59.0606 174.42 59.3439 172.083 59.4147 169.746C59.4855 166.772 59.4147 163.798 59.1314 160.823C58.5649 155.017 57.4319 149.28 55.9447 143.615C55.1657 140.712 54.2451 137.879 53.1121 135.117C51.979 132.355 50.7043 129.593 49.6421 126.832C47.73 121.733 44.7557 117.271 42.1355 112.527C41.9939 112.244 41.6398 112.456 41.7815 112.739Z" fill="#263238"/>
<path d="M58.14 154.237C58.4233 150.555 58.7774 147.014 60.052 143.473C60.6186 141.845 61.3267 140.216 61.8933 138.587C62.389 137.242 63.0263 135.329 62.6722 133.913C62.6014 133.772 62.389 133.772 62.3182 133.913C62.1057 134.763 62.1057 135.684 61.9641 136.533C61.8224 137.383 61.5392 138.162 61.3267 138.941C60.7602 140.641 60.052 142.269 59.4147 143.969C58.2108 147.227 57.5735 150.838 57.8567 154.308C57.8567 154.379 58.0692 154.379 58.14 154.237Z" fill="#263238"/>
<path d="M36.6828 132.992C38.1699 136.533 42.5605 136.746 45.7473 137.525C48.0134 138.091 49.713 139.649 50.9169 141.632C52.2624 143.827 53.183 146.377 53.8911 148.784H53.962C53.0413 144.535 51.7667 139.437 47.376 137.454C43.8352 135.896 39.2322 136.675 36.9661 132.851C36.9661 132.638 36.612 132.78 36.6828 132.992Z" fill="#263238"/>
<path d="M55.8031 153.671C55.9447 153.883 56.1572 154.167 56.2988 154.379C56.3696 154.521 56.5113 154.592 56.5821 154.662C56.7237 154.733 56.8653 154.875 57.007 154.875C57.0778 154.875 57.1486 154.804 57.0778 154.733C57.007 154.592 56.8653 154.521 56.7945 154.45C56.7237 154.379 56.5821 154.238 56.5113 154.167C56.2988 153.954 56.0864 153.742 55.9447 153.529C55.8031 153.6 55.7323 153.6 55.8031 153.671Z" fill="#263238"/>
<path d="M46.5971 164.931C49.1465 166.984 51.4834 169.463 53.3246 172.154C54.2452 173.429 55.0242 174.774 55.8032 176.191C56.5822 177.678 57.1487 179.306 57.786 180.864C57.8569 181.006 58.0693 181.006 58.0693 180.864C57.7152 177.536 55.5907 174.703 53.8912 171.871C53.0414 170.454 51.9083 169.251 50.7752 168.047C49.5714 166.772 48.2967 165.639 46.8803 164.647C46.6679 164.506 46.4555 164.789 46.5971 164.931Z" fill="#263238"/>
<path d="M66.7797 160.965C65.5758 161.673 65.505 163.585 65.505 164.789C65.4342 167.126 66.0715 169.392 65.0093 171.587C64.0887 173.641 62.6015 175.341 61.3977 177.182C60.2646 178.952 59.2024 181.218 59.2024 183.343C59.2024 183.484 59.4148 183.555 59.4148 183.414C59.8397 182.422 60.0522 181.36 60.3354 180.369C60.6895 179.235 61.1852 178.173 61.8226 177.182C62.9556 175.411 64.3719 173.853 65.2926 171.941C66.284 169.959 66.1424 167.976 66.0715 165.851C66.0007 164.506 65.8591 162.24 66.9921 161.248C67.2046 161.177 66.9922 160.894 66.7797 160.965Z" fill="#263238"/>
<path d="M58.6357 183.626C53.7494 183.555 44.4017 183.484 44.4017 183.484L46.7386 200.693C47.2343 204.588 50.5627 207.42 54.4576 207.42H58.4941H58.919H62.9555C66.8504 207.42 70.1788 204.517 70.6745 200.693L73.0114 183.484C72.8698 183.555 63.5221 183.555 58.6357 183.626Z" fill="white"/>
<path d="M295.941 152.113L267.898 207.562L186.247 208.128L211.457 151.263L295.941 152.113Z" fill="#263238"/>
<path d="M132.072 207.775V203.313H184.901L209.191 149.989H293.746L295.87 152.042H213.369L188.088 207.704C188.088 207.775 132.072 207.633 132.072 207.775Z" fill="#263238"/>
<path d="M253.522 182.706C252.601 185.467 247.573 187.592 242.333 187.45C237.093 187.309 233.552 184.972 234.472 182.21C235.393 179.448 240.421 177.324 245.661 177.465C250.973 177.607 254.443 179.944 253.522 182.706Z" fill="#263238"/>
<path d="M188.088 208.129C188.017 208.129 188.017 208.129 187.946 208.129C187.734 208.058 187.663 207.845 187.805 207.633L213.157 151.759H295.941C296.153 151.759 296.295 151.901 296.295 152.113C296.295 152.325 296.153 152.467 295.941 152.467H213.582L188.371 207.916C188.371 208.058 188.229 208.129 188.088 208.129Z" fill="white"/>
<path d="M128.39 212.024H127.823H31.2298V215.989H127.823H128.39H302.598V212.024H128.39Z" fill="white"/>
<path d="M132.639 207.775H26.556V213.015H132.639V207.775Z" fill="#263238"/>
<path d="M306.847 207.775H132.072V213.015H306.847V207.775Z" fill="#263238"/>
<path d="M103.887 94.7519H69.5415C67.417 94.7519 65.7174 93.0523 65.7174 90.9278V73.7903C65.7174 71.6658 67.417 69.9662 69.5415 69.9662H103.817C105.941 69.9662 107.641 71.6658 107.641 73.7903V90.9278C107.711 93.0523 106.012 94.7519 103.887 94.7519Z" fill="white"/>
<path d="M117.484 82.3589L104.595 76.9061V87.8118L117.484 82.3589Z" fill="white"/>
<path d="M78.6058 84.6961C79.8965 84.6961 80.9428 83.6499 80.9428 82.3592C80.9428 81.0686 79.8965 80.0223 78.6058 80.0223C77.3152 80.0223 76.2689 81.0686 76.2689 82.3592C76.2689 83.6499 77.3152 84.6961 78.6058 84.6961Z" fill="#263238"/>
<path d="M86.7497 84.696C88.0404 84.696 89.0867 83.6497 89.0867 82.3591C89.0867 81.0684 88.0404 80.0222 86.7497 80.0222C85.4591 80.0222 84.4128 81.0684 84.4128 82.3591C84.4128 83.6497 85.4591 84.696 86.7497 84.696Z" fill="#263238"/>
<path d="M94.8227 84.696C96.1133 84.696 97.1596 83.6497 97.1596 82.3591C97.1596 81.0684 96.1133 80.0222 94.8227 80.0222C93.532 80.0222 92.4858 81.0684 92.4858 82.3591C92.4858 83.6497 93.532 84.696 94.8227 84.696Z" fill="#263238"/>
<path d="M278.449 17.2793H199.277C194.178 17.2793 190.071 21.3866 190.071 26.4854V64.018C190.071 69.1168 194.178 73.2241 199.277 73.2241H206.358C206.571 76.6233 206.075 81.7221 203.243 88.1663C212.378 83.9174 217.689 77.6147 220.38 73.2241H278.449C283.548 73.2241 287.656 69.1168 287.656 64.018V26.4854C287.656 21.3866 283.548 17.2793 278.449 17.2793Z" fill="#75BF7A"/>
<path d="M244.67 35.1958H205.438C204.375 35.1958 203.455 34.346 203.455 33.2129C203.455 32.1507 204.305 31.23 205.438 31.23H244.67C245.732 31.23 246.653 32.0798 246.653 33.2129C246.653 34.2751 245.732 35.1958 244.67 35.1958Z" fill="white"/>
<path d="M272.855 46.597H204.659C204.021 46.597 203.455 46.0305 203.455 45.3931C203.455 44.7558 204.021 44.1893 204.659 44.1893H272.855C273.492 44.1893 274.059 44.7558 274.059 45.3931C274.059 46.0305 273.492 46.597 272.855 46.597Z" fill="#75BF7A"/>
<path d="M272.855 53.1828H204.659C204.021 53.1828 203.455 52.6162 203.455 51.9789C203.455 51.3416 204.021 50.775 204.659 50.775H272.855C273.492 50.775 274.059 51.3416 274.059 51.9789C274.059 52.6871 273.492 53.1828 272.855 53.1828Z" fill="#75BF7A"/>
<path d="M257.983 60.2644H204.659C204.021 60.2644 203.455 59.6979 203.455 59.0605C203.455 58.4232 204.021 57.8566 204.659 57.8566H257.983C258.621 57.8566 259.187 58.4232 259.187 59.0605C259.187 59.7687 258.621 60.2644 257.983 60.2644Z" fill="#75BF7A"/>
<path d="M272.288 35.1958H253.522C252.46 35.1958 251.539 34.346 251.539 33.2129C251.539 32.1507 252.389 31.23 253.522 31.23H272.288C273.351 31.23 274.271 32.0798 274.271 33.2129C274.271 34.2751 273.351 35.1958 272.288 35.1958Z" fill="white"/>
<path d="M225.054 121.591H203.809C203.03 121.591 202.393 120.954 202.393 120.175V105.658C202.393 104.879 203.03 104.241 203.809 104.241H225.054C225.833 104.241 226.47 104.879 226.47 105.658V120.175C226.47 120.954 225.904 121.591 225.054 121.591Z" fill="white"/>
<path d="M214.573 115.501C214.432 115.501 214.361 115.43 214.219 115.36L202.676 105.799C202.464 105.587 202.393 105.304 202.605 105.02C202.818 104.808 203.101 104.737 203.384 104.95L214.644 114.226L225.62 104.737C225.833 104.525 226.187 104.595 226.399 104.808C226.612 105.02 226.541 105.374 226.329 105.587L215.069 115.43C214.856 115.43 214.715 115.501 214.573 115.501Z" fill="#263238"/>
<path d="M203.03 121.166C202.888 121.166 202.747 121.096 202.676 121.025C202.464 120.812 202.464 120.458 202.676 120.246L210.749 111.748C210.961 111.535 211.316 111.535 211.528 111.748C211.74 111.96 211.74 112.314 211.528 112.527L203.455 121.025C203.313 121.096 203.172 121.166 203.03 121.166Z" fill="#263238"/>
<path d="M225.904 120.883C225.762 120.883 225.62 120.812 225.55 120.741L217.406 112.598C217.193 112.385 217.193 112.031 217.406 111.819C217.618 111.606 217.972 111.606 218.185 111.819L226.258 119.892C226.47 120.104 226.47 120.458 226.258 120.671C226.116 120.812 226.045 120.883 225.904 120.883Z" fill="#263238"/>
<path d="M227.603 110.757C231.514 110.757 234.685 107.586 234.685 103.675C234.685 99.7638 231.514 96.5933 227.603 96.5933C223.692 96.5933 220.522 99.7638 220.522 103.675C220.522 107.586 223.692 110.757 227.603 110.757Z" fill="#FF5F42"/>
<path d="M225.62 103.675C225.762 103.675 225.975 103.817 226.116 103.958C226.258 104.1 226.399 104.242 226.47 104.454C226.541 104.667 226.612 104.879 226.612 105.091C226.612 105.375 226.541 105.658 226.399 105.87C226.258 106.083 226.045 106.295 225.762 106.437C225.479 106.579 225.196 106.649 224.841 106.649C224.487 106.649 224.204 106.579 223.921 106.437C223.638 106.295 223.425 106.083 223.283 105.87C223.142 105.658 223.071 105.375 223.071 105.091C223.071 104.808 223.142 104.596 223.213 104.454C223.284 104.312 223.425 104.1 223.567 103.958C223.708 103.817 223.921 103.746 224.062 103.604C223.921 103.534 223.779 103.392 223.638 103.321C223.496 103.179 223.425 103.038 223.283 102.825C223.213 102.613 223.142 102.471 223.142 102.259C223.142 101.976 223.213 101.692 223.354 101.48C223.496 101.267 223.708 101.055 223.921 100.913C224.204 100.772 224.417 100.701 224.771 100.701C225.125 100.701 225.337 100.772 225.62 100.913C225.904 101.055 226.045 101.267 226.187 101.48C226.329 101.692 226.399 101.976 226.399 102.259C226.399 102.471 226.329 102.684 226.258 102.825C226.187 103.038 226.045 103.179 225.904 103.321C225.904 103.463 225.762 103.604 225.62 103.675ZM224.912 106.366C225.337 106.366 225.691 106.225 225.975 106.012C226.258 105.8 226.399 105.446 226.399 105.091C226.399 104.808 226.329 104.596 226.187 104.454C226.045 104.242 225.904 104.1 225.691 104.029C225.479 103.888 225.266 103.888 224.983 103.888C224.7 103.888 224.487 103.958 224.275 104.029C224.062 104.171 223.921 104.312 223.779 104.454C223.638 104.667 223.567 104.879 223.567 105.091C223.567 105.446 223.708 105.729 223.921 106.012C224.133 106.295 224.487 106.366 224.912 106.366ZM223.638 102.259C223.638 102.542 223.708 102.755 223.85 102.896C223.992 103.109 224.133 103.25 224.346 103.321C224.558 103.392 224.771 103.463 224.983 103.463C225.196 103.463 225.408 103.392 225.62 103.321C225.833 103.25 225.975 103.038 226.116 102.896C226.258 102.684 226.329 102.471 226.329 102.259C226.329 101.905 226.187 101.621 225.975 101.338C225.762 101.055 225.408 100.984 225.054 100.984C224.7 100.984 224.346 101.126 224.133 101.338C223.921 101.551 223.638 101.905 223.638 102.259Z" fill="white"/>
<path d="M229.161 106.649C228.949 106.649 228.666 106.579 228.453 106.508C228.241 106.437 228.028 106.295 227.816 106.154L227.745 106.083V106.012C227.745 105.941 227.745 105.941 227.816 105.87C227.816 105.8 227.887 105.8 227.957 105.8C228.028 105.8 228.028 105.8 228.099 105.87C228.241 106.012 228.453 106.083 228.666 106.154C228.878 106.224 229.091 106.224 229.232 106.224C229.586 106.224 229.87 106.154 230.153 106.012C230.436 105.87 230.649 105.658 230.79 105.446C230.932 105.162 231.003 104.879 231.003 104.596C231.003 104.312 230.932 104.029 230.79 103.746C230.649 103.533 230.436 103.321 230.224 103.179C229.94 103.038 229.657 102.967 229.303 102.967C229.091 102.967 228.878 102.967 228.736 103.038C228.524 103.109 228.382 103.179 228.312 103.25C228.241 103.321 228.099 103.321 228.028 103.321H227.957L227.887 103.25C227.887 103.25 227.887 103.179 227.887 103.109L228.312 100.772C228.312 100.772 228.312 100.701 228.382 100.701C228.453 100.701 228.453 100.63 228.524 100.63H231.144C231.215 100.63 231.215 100.63 231.286 100.701C231.357 100.772 231.357 100.772 231.357 100.842C231.357 100.913 231.357 100.913 231.286 100.984C231.215 101.055 231.215 101.055 231.144 101.055H228.595L228.666 100.984L228.241 103.109L228.099 103.038C228.17 102.967 228.312 102.896 228.453 102.896C228.595 102.896 228.736 102.754 228.949 102.754C229.161 102.684 229.303 102.684 229.515 102.684C229.87 102.684 230.224 102.754 230.507 102.896C230.79 103.038 231.003 103.25 231.215 103.533C231.357 103.817 231.498 104.171 231.498 104.525C231.498 104.95 231.427 105.304 231.215 105.587C231.073 105.87 230.79 106.154 230.507 106.295C229.94 106.579 229.586 106.649 229.161 106.649Z" fill="white"/>
<path d="M298.986 101.055H257.488C255.93 101.055 254.655 99.78 254.655 98.2221V91.707C254.655 90.149 255.93 88.8743 257.488 88.8743H298.986C300.544 88.8743 301.819 90.149 301.819 91.707V98.2221C301.819 99.78 300.544 101.055 298.986 101.055Z" fill="#263238"/>
<path d="M260.462 98.151C260.25 98.151 260.108 98.0801 260.037 97.9385C259.895 97.7969 259.895 97.6552 259.895 97.4428L260.108 95.8848C260.108 95.814 260.108 95.814 260.108 95.814H260.037L258.762 96.7346C258.621 96.8763 258.408 96.8763 258.267 96.8763C258.125 96.8763 257.983 96.7346 257.842 96.593C257.7 96.3805 257.7 96.1681 257.771 96.0265C257.842 95.8848 257.983 95.7432 258.125 95.6724L259.612 95.035C259.683 95.035 259.683 95.035 259.683 94.9642C259.683 94.9642 259.683 94.8934 259.612 94.8934L258.125 94.2561C257.913 94.1853 257.842 94.0436 257.771 93.902C257.7 93.7604 257.771 93.5479 257.842 93.4063C257.913 93.2646 258.054 93.123 258.267 93.123C258.408 93.123 258.621 93.123 258.762 93.2646L260.037 94.2561C260.108 94.2561 260.108 94.2561 260.108 94.2561V94.1852L259.895 92.6273C259.895 92.4148 259.966 92.2732 260.037 92.1316C260.179 91.9899 260.32 91.9191 260.533 91.9191C260.745 91.9191 260.887 91.9899 260.958 92.1316C261.099 92.2732 261.099 92.4148 261.099 92.6273L260.887 94.1852C260.887 94.2561 260.887 94.2561 260.887 94.2561H260.958L262.232 93.3355C262.374 93.1938 262.586 93.1938 262.728 93.1938C262.941 93.1938 263.011 93.3355 263.153 93.4771C263.295 93.6895 263.295 93.902 263.224 94.0436C263.153 94.1852 263.011 94.3269 262.87 94.3977L261.383 95.035C261.312 95.035 261.312 95.035 261.312 95.1059C261.312 95.1059 261.312 95.1767 261.383 95.1767L262.87 95.814C263.082 95.8848 263.153 96.0265 263.224 96.1681C263.295 96.3097 263.295 96.5222 263.153 96.6638C263.082 96.8054 262.941 96.9471 262.728 96.9471C262.516 96.9471 262.374 96.9471 262.232 96.8054L260.958 95.814C260.887 95.814 260.887 95.814 260.887 95.814V95.8848L261.099 97.4428C261.099 97.6552 261.099 97.7969 260.958 97.9385C260.816 98.0801 260.674 98.151 260.462 98.151Z" fill="white"/>
<path d="M269.031 98.151C268.818 98.151 268.677 98.0801 268.606 97.9385C268.464 97.7969 268.464 97.6552 268.464 97.4428L268.677 95.8848C268.677 95.814 268.677 95.814 268.677 95.814H268.606L267.331 96.7346C267.19 96.8763 266.977 96.8763 266.835 96.8763C266.694 96.8763 266.552 96.7346 266.411 96.593C266.269 96.3805 266.269 96.1681 266.34 96.0265C266.411 95.8848 266.552 95.7432 266.694 95.6724L268.181 95.035C268.252 95.035 268.252 95.035 268.252 94.9642C268.252 94.9642 268.252 94.8934 268.181 94.8934L266.694 94.2561C266.481 94.1853 266.411 94.0436 266.34 93.902C266.269 93.7604 266.34 93.5479 266.411 93.4063C266.552 93.2646 266.623 93.123 266.835 93.123C266.977 93.123 267.19 93.123 267.331 93.2646L268.606 94.2561C268.677 94.2561 268.677 94.2561 268.677 94.2561V94.1852L268.464 92.6273C268.464 92.4148 268.535 92.2732 268.606 92.1316C268.748 91.9899 268.889 91.9191 269.102 91.9191C269.314 91.9191 269.456 91.9899 269.527 92.1316C269.668 92.2732 269.668 92.4148 269.668 92.6273L269.456 94.1852C269.456 94.2561 269.456 94.2561 269.456 94.2561H269.527L270.801 93.3355C270.943 93.1938 271.155 93.1938 271.297 93.1938C271.509 93.1938 271.58 93.3355 271.722 93.4771C271.863 93.6895 271.863 93.902 271.793 94.0436C271.722 94.1852 271.58 94.3269 271.439 94.3977L269.951 95.035C269.881 95.035 269.881 95.035 269.881 95.1059C269.881 95.1059 269.881 95.1767 269.951 95.1767L271.439 95.814C271.651 95.8848 271.722 96.0265 271.793 96.1681C271.863 96.3097 271.863 96.5222 271.722 96.6638C271.651 96.8054 271.509 96.9471 271.297 96.9471C271.084 96.9471 270.943 96.9471 270.801 96.8054L269.527 95.814C269.456 95.814 269.456 95.814 269.456 95.814V95.8848L269.668 97.4428C269.668 97.6552 269.668 97.7969 269.527 97.9385C269.385 98.0801 269.243 98.151 269.031 98.151Z" fill="white"/>
<path d="M277.599 98.151C277.387 98.151 277.245 98.0801 277.175 97.9385C277.033 97.7969 277.033 97.6552 277.033 97.4428L277.245 95.8848C277.245 95.814 277.245 95.814 277.245 95.814H277.175L275.9 96.7346C275.758 96.8763 275.546 96.8763 275.404 96.8763C275.263 96.8763 275.121 96.7346 274.979 96.593C274.838 96.3805 274.838 96.1681 274.908 96.0265C274.979 95.8848 275.121 95.7432 275.263 95.6724L276.75 95.035C276.82 95.035 276.82 95.035 276.82 94.9642C276.82 94.9642 276.82 94.8934 276.75 94.8934L275.263 94.2561C275.05 94.1853 274.979 94.0436 274.908 93.902C274.838 93.7604 274.908 93.5479 274.979 93.4063C275.05 93.2646 275.192 93.123 275.404 93.123C275.546 93.123 275.758 93.123 275.9 93.2646L277.175 94.2561C277.245 94.2561 277.245 94.2561 277.245 94.2561V94.1852L277.033 92.6273C277.033 92.4148 277.104 92.2732 277.175 92.1316C277.316 91.9899 277.458 91.9191 277.67 91.9191C277.883 91.9191 278.024 91.9899 278.095 92.1316C278.237 92.2732 278.237 92.4148 278.237 92.6273L278.024 94.1852C278.024 94.2561 278.024 94.2561 278.024 94.2561H278.095L279.37 93.3355C279.511 93.1938 279.724 93.1938 279.866 93.1938C280.078 93.1938 280.149 93.3355 280.29 93.4771C280.432 93.6895 280.432 93.902 280.361 94.0436C280.29 94.1852 280.149 94.3269 280.007 94.3977L278.52 95.035C278.449 95.035 278.449 95.035 278.449 95.1059C278.449 95.1059 278.449 95.1767 278.52 95.1767L280.007 95.814C280.22 95.8848 280.29 96.0265 280.361 96.1681C280.432 96.3097 280.432 96.5222 280.29 96.6638C280.22 96.8054 280.078 96.9471 279.866 96.9471C279.653 96.9471 279.511 96.9471 279.37 96.8054L278.095 95.814C278.024 95.814 278.024 95.814 278.024 95.814V95.8848L278.237 97.4428C278.237 97.6552 278.237 97.7969 278.095 97.9385C278.024 98.0801 277.812 98.151 277.599 98.151Z" fill="white"/>
<path d="M286.239 98.151C286.027 98.151 285.885 98.0801 285.814 97.9385C285.673 97.7969 285.673 97.6552 285.673 97.4428L285.885 95.8848C285.885 95.814 285.885 95.814 285.885 95.814H285.814L284.54 96.7346C284.398 96.8763 284.186 96.8763 284.044 96.8763C283.902 96.8763 283.761 96.7346 283.619 96.593C283.477 96.3805 283.477 96.1681 283.548 96.0265C283.619 95.8848 283.761 95.7432 283.902 95.6724L285.389 95.035C285.46 95.035 285.46 95.035 285.46 94.9642C285.46 94.9642 285.46 94.8934 285.389 94.8934L283.902 94.2561C283.69 94.1853 283.619 94.0436 283.548 93.902C283.477 93.7604 283.548 93.5479 283.619 93.4063C283.761 93.2646 283.831 93.123 284.044 93.123C284.186 93.123 284.398 93.123 284.54 93.2646L285.814 94.2561C285.885 94.2561 285.885 94.2561 285.885 94.2561V94.1852L285.673 92.6273C285.673 92.4148 285.743 92.2732 285.814 92.1316C285.956 91.9899 286.098 91.9191 286.31 91.9191C286.522 91.9191 286.664 91.9899 286.735 92.1316C286.877 92.2732 286.877 92.4148 286.877 92.6273L286.664 94.1852C286.664 94.2561 286.664 94.2561 286.664 94.2561H286.735L288.01 93.3355C288.151 93.1938 288.364 93.1938 288.505 93.1938C288.718 93.1938 288.789 93.3355 288.93 93.4771C289.072 93.6895 289.072 93.902 289.001 94.0436C288.93 94.1852 288.789 94.3269 288.647 94.3977L287.16 95.035C287.089 95.035 287.089 95.035 287.089 95.1059C287.089 95.1059 287.089 95.1767 287.16 95.1767L288.647 95.814C288.859 95.8848 288.93 96.0265 289.001 96.1681C289.072 96.3097 289.072 96.5222 288.93 96.6638C288.859 96.8054 288.718 96.9471 288.505 96.9471C288.293 96.9471 288.151 96.9471 288.01 96.8054L286.735 95.814C286.664 95.814 286.664 95.814 286.664 95.814V95.8848L286.877 97.4428C286.877 97.6552 286.877 97.7969 286.735 97.9385C286.593 98.0801 286.452 98.151 286.239 98.151Z" fill="white"/>
<path d="M294.808 98.151C294.595 98.151 294.454 98.0801 294.383 97.9385C294.241 97.7969 294.241 97.6552 294.241 97.4428L294.454 95.8848C294.454 95.814 294.454 95.814 294.454 95.814H294.383L293.108 96.7346C292.967 96.8763 292.754 96.8763 292.613 96.8763C292.471 96.8763 292.329 96.7346 292.188 96.593C292.046 96.3805 292.046 96.1681 292.117 96.0265C292.188 95.8848 292.329 95.7432 292.471 95.6724L293.958 95.035C294.029 95.035 294.029 95.035 294.029 94.9642C294.029 94.9642 294.029 94.8934 293.958 94.8934L292.471 94.2561C292.258 94.1853 292.188 94.0436 292.117 93.902C292.046 93.7604 292.117 93.5479 292.188 93.4063C292.258 93.2646 292.4 93.123 292.613 93.123C292.754 93.123 292.967 93.123 293.108 93.2646L294.383 94.2561C294.454 94.2561 294.454 94.2561 294.454 94.2561V94.1852L294.241 92.6273C294.241 92.4148 294.312 92.2732 294.383 92.1316C294.525 91.9899 294.666 91.9191 294.879 91.9191C295.091 91.9191 295.233 91.9899 295.304 92.1316C295.445 92.2732 295.445 92.4148 295.445 92.6273L295.233 94.1852C295.233 94.2561 295.233 94.2561 295.233 94.2561H295.304L296.578 93.3355C296.72 93.1938 296.932 93.1938 297.074 93.1938C297.286 93.1938 297.357 93.3355 297.499 93.4771C297.64 93.6895 297.641 93.902 297.57 94.0436C297.499 94.1852 297.357 94.3269 297.216 94.3977L295.728 95.035C295.658 95.035 295.658 95.035 295.658 95.1059C295.658 95.1059 295.658 95.1767 295.728 95.1767L297.216 95.814C297.428 95.8848 297.499 96.0265 297.57 96.1681C297.641 96.3097 297.64 96.5222 297.499 96.6638C297.428 96.8054 297.286 96.9471 297.074 96.9471C296.862 96.9471 296.72 96.9471 296.578 96.8054L295.304 95.814C295.233 95.814 295.233 95.814 295.233 95.814V95.8848L295.445 97.4428C295.445 97.6552 295.445 97.7969 295.304 97.9385C295.162 98.0801 295.02 98.151 294.808 98.151Z" fill="#75BF7A"/>
</svg>
